<svg width="11" height="17" viewBox="0 0 11 17" fill="none" xmlns="http://www.w3.org/2000/svg">
<path d="M8.98633 5.51172C8.98633 3.58431 7.42193 1.99219 5.5 1.99219C3.58056 1.99219 2.01367 3.58209 2.01367 5.51172C2.01367 7.43408 3.57764 8.99805 5.5 8.99805C7.42236 8.99805 8.98633 7.43408 8.98633 5.51172ZM3.00977 5.51172C3.00977 4.12028 4.12688 2.98828 5.5 2.98828C6.87312 2.98828 7.99023 4.12028 7.99023 5.51172C7.99023 6.88483 6.87312 8.00195 5.5 8.00195C4.12688 8.00195 3.00977 6.88483 3.00977 5.51172Z" fill="black"/>
<path d="M10.9785 5.51172C10.9785 2.48984 8.52544 0 5.5 0C2.64403 0 0.0214844 2.28165 0.0214844 5.51172C0.0214844 7.52562 1.99329 10.5689 3.16403 12.2412C1.86256 12.5027 0.0214844 13.1782 0.0214844 14.5098C0.0214844 16.414 3.56828 17 5.5 17C7.43189 17 10.9785 16.4139 10.9785 14.5098C10.9785 13.1781 9.13727 12.5027 7.83597 12.2412C9.0007 10.5775 10.9785 7.52795 10.9785 5.51172ZM1.01758 5.51172C1.01758 2.72256 3.34429 0.996094 5.5 0.996094C7.97161 0.996094 9.98242 3.02178 9.98242 5.51172C9.98242 7.62091 7.03525 11.7785 5.49997 13.7177C3.96455 11.7789 1.01758 7.62221 1.01758 5.51172ZM9.98242 14.5098C9.98242 15.3419 7.54329 16.0039 5.5 16.0039C3.45944 16.0039 1.01758 15.3413 1.01758 14.5098C1.01758 14.1134 1.90729 13.4261 3.8093 13.1391C4.53572 14.1248 5.08247 14.7864 5.11654 14.8276C5.21113 14.9417 5.35171 15.0078 5.5 15.0078C5.64829 15.0078 5.78887 14.9417 5.88346 14.8276C5.91753 14.7864 6.46429 14.1248 7.1907 13.1391C9.09271 13.4261 9.98242 14.1134 9.98242 14.5098Z" fill="black"/>
</svg>
