<svg width="17" height="17" viewBox="0 0 17 17" fill="none" xmlns="http://www.w3.org/2000/svg">
<path d="M16.6956 13.2232L13.2951 9.82273C12.8891 9.41683 12.2288 9.41683 11.8228 9.82273L10.9385 10.707C10.6615 10.9841 10.5739 11.3797 10.675 11.7321L10.3414 12.0657C10.3413 12.0658 10.3412 12.0659 10.3411 12.066C10.1042 12.3032 8.62861 11.9392 6.84494 10.1555C5.06154 8.37212 4.69743 6.89677 4.93436 6.65939C4.93436 6.65933 4.93443 6.65933 4.93443 6.65933L5.26837 6.32542C5.36264 6.3525 5.45992 6.36633 5.55727 6.36633C5.82386 6.36633 6.09042 6.26488 6.29342 6.06195L7.1777 5.17767C7.5836 4.77177 7.5836 4.11137 7.1777 3.70543L3.77716 0.30486C3.58056 0.108264 3.31912 0 3.04107 0C2.76296 0 2.50162 0.108331 2.30499 0.30486L1.42065 1.1892C1.14358 1.46627 1.05599 1.8619 1.15717 2.21425C1.15717 2.21425 0.874345 2.49979 0.860278 2.51782C-0.0804352 3.56348 -0.256931 5.20977 0.36672 7.17807C0.977422 9.10529 2.29394 11.1469 4.07381 12.9266C5.85362 14.7065 7.89521 16.023 9.82242 16.6337C10.5966 16.879 11.3209 17.0006 11.9785 17.0006C13.0569 17.0006 13.9559 16.6736 14.6004 16.0291L14.7859 15.8436C14.8788 15.8703 14.9758 15.8847 15.0751 15.8847C15.3533 15.8847 15.6147 15.7764 15.8112 15.5799L16.6956 14.6955C17.1015 14.2896 17.1015 13.6292 16.6956 13.2232ZM3.04107 1.04094L6.44165 4.44155L5.55785 5.3263C5.55785 5.3263 5.55768 5.32613 5.55737 5.32583L5.54466 5.31312L3.85708 3.62554L2.15676 1.92529L3.04107 1.04094ZM13.8643 15.293C13.8643 15.2931 13.8642 15.2931 13.8642 15.2932C13.1153 16.042 11.7916 16.1657 10.1369 15.6413C8.36582 15.0801 6.47398 13.8545 4.81 12.1905C3.14595 10.5265 1.92041 8.63471 1.35919 6.86355C0.834822 5.20885 0.958508 3.88512 1.70747 3.13612L1.70754 3.13605L1.80143 3.04216L4.44047 5.68116L4.19842 5.92321C4.19825 5.92338 4.19811 5.92358 4.19791 5.92379C3.1951 6.92785 4.40003 9.18278 6.10889 10.8916C7.38792 12.1707 8.97286 13.1674 10.1103 13.1674C10.4928 13.1674 10.8247 13.0547 11.0773 12.8021C11.0774 12.802 11.0775 12.8019 11.0776 12.8018L11.3194 12.56L13.9584 15.199L13.8643 15.293ZM15.0752 14.8437L11.6746 11.4432L12.5589 10.5589L15.9595 13.9594C15.9595 13.9594 15.0755 14.844 15.0752 14.8437Z" fill="black"/>
</svg>
