<svg width="13" height="13" viewBox="0 0 13 13" fill="none" xmlns="http://www.w3.org/2000/svg">
<path d="M12.7672 10.1119L10.1668 7.51148C9.85639 7.20108 9.35141 7.20108 9.04096 7.51148L8.36475 8.18769C8.15287 8.39956 8.0859 8.70208 8.16327 8.97155L7.90813 9.22668C7.90806 9.22676 7.908 9.22681 7.90793 9.22689C7.72674 9.40828 6.59835 9.12992 5.23437 7.76594C3.87059 6.40219 3.59215 5.27398 3.77334 5.09246C3.77334 5.09241 3.77339 5.09241 3.77339 5.09241L4.02876 4.83707C4.10084 4.85778 4.17523 4.86836 4.24968 4.86836C4.45354 4.86836 4.65738 4.79078 4.81262 4.63559L5.48883 3.95938C5.79922 3.64899 5.79922 3.14398 5.48883 2.83356L2.88841 0.233128C2.73808 0.0827896 2.53815 0 2.32553 0C2.11285 0 1.913 0.0828414 1.76264 0.233128L1.08638 0.909389C0.874503 1.12126 0.807524 1.4238 0.884897 1.69325C0.884897 1.69325 0.668617 1.9116 0.65786 1.92539C-0.0615093 2.725 -0.196477 3.98393 0.280433 5.4891C0.747441 6.96285 1.75419 8.52406 3.11527 9.88506C4.4763 11.2461 6.03751 12.2528 7.51127 12.7199C8.10329 12.9075 8.65713 13.0004 9.16006 13.0004C9.98467 13.0004 10.6722 12.7503 11.165 12.2575L11.3069 12.1157C11.3779 12.1361 11.4521 12.1471 11.528 12.1471C11.7407 12.1471 11.9406 12.0643 12.0909 11.914L12.7672 11.2377C13.0776 10.9273 13.0776 10.4223 12.7672 10.1119ZM2.32553 0.796014L4.92597 3.39647L4.25012 4.07304C4.25012 4.07304 4.24999 4.07291 4.24975 4.07268L4.24003 4.06296L2.94953 2.77247L1.64929 1.47228L2.32553 0.796014ZM10.6021 11.6946C10.6021 11.6947 10.6021 11.6947 10.602 11.6948C10.0293 12.2674 9.01709 12.362 7.75178 11.961C6.39739 11.5318 4.95069 10.5946 3.67824 9.32212C2.40572 8.04964 1.46855 6.603 1.03938 5.24858C0.638394 3.98323 0.732977 2.97096 1.30571 2.3982L1.30577 2.39815L1.37757 2.32635L3.39565 4.3444L3.21055 4.5295C3.21042 4.52963 3.21032 4.52979 3.21016 4.52994C2.44331 5.29775 3.36473 7.0221 4.67151 8.32888C5.64959 9.30696 6.8616 10.0692 7.73143 10.0692C8.02392 10.0692 8.27773 9.98299 8.47089 9.7898C8.47097 9.78972 8.47102 9.78967 8.4711 9.78959L8.65599 9.6047L10.6741 11.6228L10.6021 11.6946ZM11.5281 11.3511L8.92766 8.75063L9.60387 8.07442L12.2043 10.6748C12.2043 10.6748 11.5283 11.3513 11.5281 11.3511Z" fill="white"/>
</svg>
