<svg width="15" height="15" viewBox="0 0 15 15" fill="none" xmlns="http://www.w3.org/2000/svg">
<path d="M10.5762 4.86328C10.5762 3.16263 9.19582 1.75781 7.5 1.75781C5.80638 1.75781 4.42383 3.16066 4.42383 4.86328C4.42383 6.55948 5.8038 7.93945 7.5 7.93945C9.1962 7.93945 10.5762 6.55948 10.5762 4.86328ZM5.30273 4.86328C5.30273 3.63554 6.28843 2.63672 7.5 2.63672C8.71157 2.63672 9.69727 3.63554 9.69727 4.86328C9.69727 6.07485 8.71157 7.06055 7.5 7.06055C6.28843 7.06055 5.30273 6.07485 5.30273 4.86328Z" fill="white"/>
<path d="M12.334 4.86328C12.334 2.19691 10.1695 0 7.5 0C4.98003 0 2.66602 2.01322 2.66602 4.86328C2.66602 6.64025 4.40584 9.32552 5.43885 10.801C4.2905 11.0318 2.66602 11.6278 2.66602 12.8027C2.66602 14.4829 5.79554 15 7.5 15C9.20461 15 12.334 14.4829 12.334 12.8027C12.334 11.6278 10.7094 11.0318 9.56115 10.801C10.5889 9.33311 12.334 6.6423 12.334 4.86328ZM3.54492 4.86328C3.54492 2.40226 5.5979 0.878906 7.5 0.878906C9.68083 0.878906 11.4551 2.66628 11.4551 4.86328C11.4551 6.72434 8.85463 10.3928 7.49997 12.1039C6.1452 10.3932 3.54492 6.72548 3.54492 4.86328ZM11.4551 12.8027C11.4551 13.5369 9.3029 14.1211 7.5 14.1211C5.6995 14.1211 3.54492 13.5365 3.54492 12.8027C3.54492 12.453 4.32996 11.8466 6.0082 11.5933C6.64916 12.4631 7.13159 13.0469 7.16165 13.0831C7.24512 13.1839 7.36916 13.2422 7.5 13.2422C7.63084 13.2422 7.75488 13.1839 7.83835 13.0831C7.86841 13.0469 8.35084 12.4631 8.9918 11.5933C10.67 11.8466 11.4551 12.453 11.4551 12.8027Z" fill="white"/>
</svg>
