<svg width="22" height="22" viewBox="0 0 22 22" fill="none" xmlns="http://www.w3.org/2000/svg">
<path d="M10.5453 6.04468C7.55589 6.04468 5.13574 8.46746 5.13574 11.4542C5.13574 14.4436 7.55853 16.8638 10.5453 16.8638C13.5347 16.8638 15.9548 14.441 15.9548 11.4542C15.9548 8.46483 13.532 6.04468 10.5453 6.04468ZM10.5453 14.9654C8.60477 14.9654 7.03409 13.3939 7.03409 11.4542C7.03409 9.51459 8.60565 7.94302 10.5453 7.94302C12.4849 7.94302 14.0565 9.51459 14.0565 11.4542C14.0574 13.3939 12.4858 14.9654 10.5453 14.9654Z" fill="white"/>
<path d="M14.8883 0.982972C12.9487 0.892491 8.14438 0.896883 6.20299 0.982972C4.49702 1.06291 2.99223 1.47491 1.77908 2.68806C-0.248404 4.71554 0.0107411 7.44754 0.0107411 11.4542C0.0107411 15.5548 -0.217658 18.2236 1.77908 20.2203C3.81446 22.2548 6.58599 21.9886 10.5452 21.9886C14.6072 21.9886 16.0092 21.9913 17.4455 21.4352C19.3983 20.6771 20.8723 18.9316 21.0164 15.7964C21.1078 13.8559 21.1025 9.05248 21.0164 7.11109C20.8425 3.41015 18.8563 1.16569 14.8883 0.982972ZM17.9585 18.8789C16.6294 20.208 14.7855 20.0894 10.5197 20.0894C6.12744 20.0894 4.36613 20.1544 3.08095 18.8657C1.60075 17.3926 1.86868 15.0269 1.86868 11.4401C1.86868 6.58665 1.37059 3.09127 6.24164 2.84179C7.36079 2.80226 7.69022 2.78908 10.5074 2.78908L10.547 2.81543C15.2283 2.81543 18.9011 2.32525 19.1216 7.19542C19.1717 8.30667 19.1831 8.64049 19.1831 11.4533C19.1822 15.7946 19.2648 17.5665 17.9585 18.8789Z" fill="white"/>
<path d="M16.1684 7.09534C16.8665 7.09534 17.4325 6.52938 17.4325 5.83124C17.4325 5.1331 16.8665 4.56714 16.1684 4.56714C15.4703 4.56714 14.9043 5.1331 14.9043 5.83124C14.9043 6.52938 15.4703 7.09534 16.1684 7.09534Z" fill="white"/>
</svg>
