<svg width="14" height="22" viewBox="0 0 14 22" fill="none" xmlns="http://www.w3.org/2000/svg">
<path d="M0.859156 11.3153C0.320665 12.3739 0.932068 12.8799 2.32705 13.7443C3.51296 14.4769 5.15128 14.7448 6.20366 14.852C5.77234 15.2666 7.74886 13.3656 2.05649 18.841C0.849493 19.998 2.79263 21.8541 3.99875 20.7218L7.26395 17.5726C8.51399 18.7752 9.7122 19.9277 10.5292 20.7262C11.7362 21.8629 13.6784 20.0226 12.4846 18.8454C12.395 18.7602 8.05983 14.6016 8.32425 14.8564C9.38981 14.7492 11.0035 14.4655 12.1754 13.7487L12.1745 13.7478C13.5695 12.879 14.1809 12.3739 13.6503 11.3153C13.3297 10.7145 12.4653 10.212 11.3145 11.0808C11.3145 11.0808 9.76052 12.2711 7.25429 12.2711C4.74719 12.2711 3.19408 11.0808 3.19408 11.0808C2.04419 10.2076 1.17628 10.7145 0.859156 11.3153Z" fill="white"/>
<path d="M7.25212 10.6662C10.3074 10.6662 12.8022 8.27854 12.8022 5.33924C12.8022 2.38763 10.3074 0 7.25212 0C4.19598 0 1.70117 2.38763 1.70117 5.33924C1.70117 8.27854 4.19598 10.6662 7.25212 10.6662ZM7.25212 2.70476C8.75339 2.70476 9.97795 3.88276 9.97795 5.33924C9.97795 6.78341 8.75339 7.96142 7.25212 7.96142C5.75084 7.96142 4.52628 6.78341 4.52628 5.33924C4.5254 3.88188 5.74996 2.70476 7.25212 2.70476Z" fill="white"/>
</svg>
