<svg width="22" height="13" viewBox="0 0 22 13" fill="none" xmlns="http://www.w3.org/2000/svg">
<path d="M17.8271 7.5525C17.4863 7.12204 17.5838 6.93053 17.8271 6.54575C17.8315 6.54136 20.6453 2.65317 20.9352 1.33456L20.937 1.33368C21.081 0.853152 20.937 0.5 20.2403 0.5H17.9352C17.3483 0.5 17.0778 0.803078 16.9328 1.14217C16.9328 1.14217 15.7592 3.95158 14.0988 5.77268C13.5629 6.2989 13.3152 6.46757 13.0227 6.46757C12.8786 6.46757 12.6546 6.2989 12.6546 5.81836V1.33368C12.6546 0.757397 12.4903 0.5 12.0045 0.5H8.37986C8.01177 0.5 7.79303 0.768817 7.79303 1.01919C7.79303 1.56561 8.6232 1.69123 8.70929 3.22858V6.5642C8.70929 7.2951 8.57664 7.42951 8.28234 7.42951C7.49873 7.42951 5.59681 4.60869 4.46971 1.38024C4.24218 0.753883 4.01992 0.500878 3.4287 0.500878H1.12267C0.464683 0.500878 0.332031 0.803957 0.332031 1.14305C0.332031 1.74218 1.11564 4.72113 3.976 8.65676C5.88232 11.3432 8.56697 12.7988 11.0092 12.7988C12.4771 12.7988 12.6563 12.4755 12.6563 11.9195C12.6563 9.35252 12.5237 9.11006 13.259 9.11006C13.5998 9.11006 14.1867 9.27873 15.5571 10.5745C17.1234 12.111 17.3808 12.7988 18.2576 12.7988H20.5627C21.2198 12.7988 21.5528 12.4755 21.3613 11.8378C20.9229 10.4963 17.9606 7.73698 17.8271 7.5525Z" fill="white"/>
</svg>
