<svg width="1920" height="765" viewBox="0 0 1920 765" fill="none" xmlns="http://www.w3.org/2000/svg">
<path d="M512.579 149.675C358.012 27.2426 0 0 0 0V765C0 765 269.373 540.489 451.765 540.489C677.647 540.489 677.647 673.533 938.281 673.533C1224.98 673.533 1370.27 332.609 1649.59 332.609C1910.23 332.609 1920 351.318 1920 351.318V182.935C1920 182.935 1758.19 202.683 1541 255.693C1324.46 308.541 1077.29 482.283 938.281 482.283C737.991 482.283 764.525 349.239 512.579 149.675Z" fill="url(#paint0_linear)"/>
<path d="M512.579 149.675C358.012 27.2426 0 0 0 0V765C0 765 269.373 540.489 451.765 540.489C677.647 540.489 677.647 673.533 938.281 673.533C1224.98 673.533 1370.27 332.609 1649.59 332.609C1910.23 332.609 1920 351.318 1920 351.318V182.935C1920 182.935 1758.19 202.683 1541 255.693C1324.46 308.541 1077.29 482.283 938.281 482.283C737.991 482.283 764.525 349.239 512.579 149.675Z" fill="url(#paint1_linear)"/>
<path d="M512.579 149.675C358.012 27.2426 0 0 0 0V765C0 765 269.373 540.489 451.765 540.489C677.647 540.489 677.647 673.533 938.281 673.533C1224.98 673.533 1370.27 332.609 1649.59 332.609C1910.23 332.609 1920 351.318 1920 351.318V182.935C1920 182.935 1758.19 202.683 1541 255.693C1324.46 308.541 1077.29 482.283 938.281 482.283C737.991 482.283 764.525 349.239 512.579 149.675Z" fill="url(#paint2_linear)"/>
<defs>
<linearGradient id="paint0_linear" x1="2.68673e-05" y1="86.2704" x2="2041.57" y2="49.9632" gradientUnits="userSpaceOnUse">
<stop stop-color="#00B332"/>
<stop offset="1" stop-color="#17D8F2"/>
</linearGradient>
<linearGradient id="paint1_linear" x1="43.4391" y1="-80.0346" x2="1187.71" y2="333.462" gradientUnits="userSpaceOnUse">
<stop stop-opacity="0.2"/>
<stop offset="1" stop-color="white" stop-opacity="0"/>
</linearGradient>
<linearGradient id="paint2_linear" x1="2041.63" y1="-171.501" x2="1158.79" y2="213.575" gradientUnits="userSpaceOnUse">
<stop offset="0.182292" stop-color="white" stop-opacity="0.26"/>
<stop offset="1" stop-color="white" stop-opacity="0"/>
</linearGradient>
</defs>
</svg>
