<svg width="28" height="28" viewBox="0 0 28 28" fill="none" xmlns="http://www.w3.org/2000/svg">
<g filter="url(#filter0_d)">
<path d="M10.0037 4.86444C7.1679 4.86444 4.87207 7.16278 4.87207 9.99611C4.87207 12.8319 7.1704 15.1278 10.0037 15.1278C12.8396 15.1278 15.1354 12.8294 15.1354 9.99611C15.1354 7.16027 12.8371 4.86444 10.0037 4.86444ZM10.0037 13.3269C8.1629 13.3269 6.6729 11.8361 6.6729 9.99611C6.6729 8.15611 8.16374 6.66527 10.0037 6.66527C11.8437 6.66527 13.3346 8.15611 13.3346 9.99611C13.3354 11.8361 11.8446 13.3269 10.0037 13.3269Z" fill="white"/>
<path d="M14.1235 0.0628222C12.2835 -0.0230111 7.72602 -0.0188445 5.88436 0.0628222C4.26602 0.138656 2.83852 0.529489 1.68769 1.68032C-0.235644 3.60366 0.0101894 6.19532 0.0101894 9.99616C0.0101894 13.8862 -0.206477 16.4178 1.68769 18.312C3.61852 20.242 6.24769 19.9895 10.0035 19.9895C13.8569 19.9895 15.1869 19.992 16.5494 19.4645C18.4019 18.7453 19.8002 17.0895 19.9369 14.1153C20.0235 12.2745 20.0185 7.71782 19.9369 5.87616C19.7719 2.36532 17.8877 0.236156 14.1235 0.0628222ZM17.036 17.0395C15.7752 18.3003 14.026 18.1878 9.97936 18.1878C5.81269 18.1878 4.14186 18.2495 2.92269 17.027C1.51852 15.6295 1.77269 13.3853 1.77269 9.98283C1.77269 5.37866 1.30019 2.06282 5.92102 1.82616C6.98269 1.78866 7.29519 1.77616 9.96769 1.77616L10.0052 1.80116C14.446 1.80116 17.9302 1.33616 18.1394 5.95616C18.1869 7.01032 18.1977 7.32699 18.1977 9.99533C18.1969 14.1137 18.2752 15.7945 17.036 17.0395Z" fill="white"/>
<path d="M15.3388 5.8611C16.0011 5.8611 16.538 5.32422 16.538 4.66193C16.538 3.99965 16.0011 3.46277 15.3388 3.46277C14.6765 3.46277 14.1396 3.99965 14.1396 4.66193C14.1396 5.32422 14.6765 5.8611 15.3388 5.8611Z" fill="white"/>
</g>
<defs>
<filter id="filter0_d" x="0" y="0" width="28" height="28.0004" filterUnits="userSpaceOnUse" color-interpolation-filters="sRGB">
<feFlood flood-opacity="0" result="BackgroundImageFix"/>
<feColorMatrix in="SourceAlpha" type="matrix" values="0 0 0 0 0 0 0 0 0 0 0 0 0 0 0 0 0 0 127 0"/>
<feOffset dx="4" dy="4"/>
<feGaussianBlur stdDeviation="2"/>
<feColorMatrix type="matrix" values="0 0 0 0 0 0 0 0 0 0 0 0 0 0 0 0 0 0 0.25 0"/>
<feBlend mode="normal" in2="BackgroundImageFix" result="effect1_dropShadow"/>
<feBlend mode="normal" in="SourceGraphic" in2="effect1_dropShadow" result="shape"/>
</filter>
</defs>
</svg>
