<svg width="21" height="28" viewBox="0 0 21 28" fill="none" xmlns="http://www.w3.org/2000/svg">
<g filter="url(#filter0_d)">
<path d="M0.184146 10.7341C-0.326685 11.7383 0.253312 12.2183 1.57664 13.0383C2.70163 13.7333 4.25579 13.9875 5.25412 14.0891C4.84496 14.4824 6.71995 12.6791 1.31997 17.8733C0.174979 18.9708 2.0183 20.7316 3.16246 19.6574L6.25995 16.6699C7.44578 17.8108 8.58244 18.9041 9.35743 19.6616C10.5024 20.7399 12.3449 18.9941 11.2124 17.8774C11.1274 17.7966 7.01494 13.8516 7.26578 14.0933C8.2766 13.9916 9.80743 13.7225 10.9191 13.0425L10.9183 13.0416C12.2416 12.2175 12.8216 11.7383 12.3183 10.7341C12.0141 10.1641 11.1941 9.68747 10.1024 10.5116C10.1024 10.5116 8.62827 11.6408 6.25078 11.6408C3.87246 11.6408 2.39913 10.5116 2.39913 10.5116C1.30831 9.68331 0.484978 10.1641 0.184146 10.7341Z" fill="white"/>
<path d="M6.2492 10.1183C9.14752 10.1183 11.5142 7.85329 11.5142 5.06497C11.5142 2.26499 9.14752 0 6.2492 0C3.35005 0 0.983398 2.26499 0.983398 5.06497C0.983398 7.85329 3.35005 10.1183 6.2492 10.1183ZM6.2492 2.56582C7.67336 2.56582 8.83503 3.68332 8.83503 5.06497C8.83503 6.43497 7.67336 7.55246 6.2492 7.55246C4.82505 7.55246 3.66338 6.43497 3.66338 5.06497C3.66255 3.68248 4.82421 2.56582 6.2492 2.56582Z" fill="white"/>
</g>
<defs>
<filter id="filter0_d" x="0" y="0" width="20.4982" height="28" filterUnits="userSpaceOnUse" color-interpolation-filters="sRGB">
<feFlood flood-opacity="0" result="BackgroundImageFix"/>
<feColorMatrix in="SourceAlpha" type="matrix" values="0 0 0 0 0 0 0 0 0 0 0 0 0 0 0 0 0 0 127 0"/>
<feOffset dx="4" dy="4"/>
<feGaussianBlur stdDeviation="2"/>
<feColorMatrix type="matrix" values="0 0 0 0 0 0 0 0 0 0 0 0 0 0 0 0 0 0 0.25 0"/>
<feBlend mode="normal" in2="BackgroundImageFix" result="effect1_dropShadow"/>
<feBlend mode="normal" in="SourceGraphic" in2="effect1_dropShadow" result="shape"/>
</filter>
</defs>
</svg>
