<svg width="20" height="20" viewBox="0 0 20 20" fill="none" xmlns="http://www.w3.org/2000/svg">
<path d="M14.5888 11.9228L14.5813 11.9853C12.7488 11.072 12.5571 10.9503 12.3205 11.3053C12.1563 11.5511 11.678 12.1086 11.5338 12.2736C11.388 12.4361 11.243 12.4486 10.9955 12.3361C10.7455 12.2111 9.94296 11.9486 8.99296 11.0986C8.25296 10.4361 7.75629 9.62364 7.60963 9.37364C7.36546 8.95197 7.87629 8.89197 8.34129 8.01197C8.42463 7.83697 8.38213 7.69947 8.32046 7.5753C8.25796 7.4503 7.76046 6.2253 7.55213 5.73697C7.35213 5.2503 7.14629 5.31197 6.99213 5.31197C6.51213 5.2703 6.16129 5.27697 5.85213 5.59864C4.50713 7.07697 4.84629 8.60197 5.99713 10.2236C8.25879 13.1836 9.46379 13.7286 11.6671 14.4853C12.2621 14.6745 12.8046 14.6478 13.2338 14.5861C13.7121 14.5103 14.7063 13.9853 14.9138 13.3978C15.1263 12.8103 15.1263 12.3228 15.0638 12.2103C15.0021 12.0978 14.8388 12.0353 14.5888 11.9228Z" fill="black"/>
<path d="M17.1 2.87453C10.6925 -3.31964 0.0883333 1.17286 0.0841667 9.91119C0.0841667 11.6579 0.541667 13.3612 1.41333 14.8654L0 20.0004L5.27917 18.6237C11.8667 22.182 19.9967 17.457 20 9.91619C20 7.26953 18.9667 4.77869 17.0875 2.90703L17.1 2.87453ZM18.335 9.88869C18.33 16.2495 11.3475 20.222 5.825 16.9754L5.525 16.797L2.4 17.6095L3.2375 14.572L3.03833 14.2595C-0.398333 8.78869 3.55 1.63869 10.06 1.63869C12.2717 1.63869 14.3475 2.50119 15.9108 4.06369C17.4733 5.61286 18.335 7.68869 18.335 9.88869Z" fill="black"/>
</svg>
