<svg width="23" height="23" viewBox="0 0 23 23" fill="none" xmlns="http://www.w3.org/2000/svg">
<path d="M11.504 5.59424C8.24275 5.59424 5.60254 8.23732 5.60254 11.4957C5.60254 14.7569 8.24562 17.3971 11.504 17.3971C14.7652 17.3971 17.4054 14.754 17.4054 11.4957C17.4054 8.23445 14.7623 5.59424 11.504 5.59424ZM11.504 15.3261C9.387 15.3261 7.6735 13.6117 7.6735 11.4957C7.6735 9.37966 9.38796 7.6652 11.504 7.6652C13.62 7.6652 15.3344 9.37966 15.3344 11.4957C15.3354 13.6117 13.6209 15.3261 11.504 15.3261Z" fill="black"/>
<path d="M16.2421 0.0722456C14.1261 -0.0264628 8.88493 -0.0216711 6.76701 0.0722456C4.90593 0.159454 3.2643 0.608912 1.94084 1.93237C-0.270991 4.14421 0.0117178 7.12462 0.0117178 11.4956C0.0117178 15.9691 -0.237449 18.8805 1.94084 21.0588C4.1613 23.2783 7.18484 22.9879 11.5041 22.9879C15.9354 22.9879 17.4649 22.9908 19.0318 22.3842C21.1621 21.5571 22.7702 19.6529 22.9274 16.2326C23.0271 14.1157 23.0213 8.8755 22.9274 6.75758C22.7376 2.72012 20.5708 0.271579 16.2421 0.0722456ZM19.5914 19.5954C18.1415 21.0454 16.1299 20.916 11.4763 20.916C6.68459 20.916 4.76314 20.9869 3.36109 19.581C1.7463 17.9739 2.03859 15.3931 2.03859 11.4803C2.03859 6.18546 1.49522 2.37225 6.80918 2.10008C8.0301 2.05695 8.38947 2.04258 11.4628 2.04258L11.506 2.07133C16.6129 2.07133 20.6197 1.53658 20.8603 6.84958C20.9149 8.06187 20.9273 8.42604 20.9273 11.4946C20.9264 16.2307 21.0165 18.1637 19.5914 19.5954Z" fill="black"/>
<path d="M17.6388 6.74051C18.4004 6.74051 19.0178 6.12309 19.0178 5.36146C19.0178 4.59984 18.4004 3.98242 17.6388 3.98242C16.8772 3.98242 16.2598 4.59984 16.2598 5.36146C16.2598 6.12309 16.8772 6.74051 17.6388 6.74051Z" fill="black"/>
</svg>
