<svg width="15" height="23" viewBox="0 0 15 23" fill="none" xmlns="http://www.w3.org/2000/svg">
<path d="M0.211768 12.3441C-0.375687 13.4989 0.291309 14.0509 1.81313 14.9939C3.10688 15.7931 4.89416 16.0854 6.04224 16.2023C5.5717 16.6546 7.72794 14.5808 1.51797 20.5541C0.201226 21.8162 2.32105 23.8412 3.63683 22.6059L7.19894 19.1703C8.56264 20.4822 9.8698 21.7395 10.761 22.6107C12.0778 23.8507 14.1967 21.843 12.8943 20.5589C12.7965 20.4659 8.06719 15.9292 8.35564 16.2071C9.5181 16.0902 11.2785 15.7807 12.557 14.9987L12.556 14.9977C14.0778 14.0499 14.7448 13.4989 14.166 12.3441C13.8162 11.6886 12.8732 11.1404 11.6178 12.0882C11.6178 12.0882 9.92251 13.3867 7.1884 13.3867C4.45333 13.3867 2.75901 12.0882 2.75901 12.0882C1.50455 11.1356 0.557725 11.6886 0.211768 12.3441Z" fill="black"/>
<path d="M7.18654 11.636C10.5196 11.636 13.2413 9.03129 13.2413 5.82472C13.2413 2.60474 10.5196 0 7.18654 0C3.85251 0 1.13086 2.60474 1.13086 5.82472C1.13086 9.03129 3.85251 11.636 7.18654 11.636ZM7.18654 2.95069C8.82432 2.95069 10.1602 4.23581 10.1602 5.82472C10.1602 7.40021 8.82432 8.68533 7.18654 8.68533C5.54875 8.68533 4.21284 7.40021 4.21284 5.82472C4.21189 4.23485 5.5478 2.95069 7.18654 2.95069Z" fill="black"/>
</svg>
