<svg width="23" height="14" viewBox="0 0 23 14" fill="none" xmlns="http://www.w3.org/2000/svg">
<path d="M19.0859 7.69377C18.714 7.22417 18.8204 7.01524 19.0859 6.59548C19.0907 6.59069 22.1603 2.34896 22.4766 0.910448L22.4785 0.90949C22.6357 0.385263 22.4785 0 21.7185 0H19.2037C18.5636 0 18.2684 0.330636 18.1103 0.700566C18.1103 0.700566 16.8299 3.76542 15.0186 5.75212C14.434 6.32618 14.1637 6.51019 13.8446 6.51019C13.6874 6.51019 13.443 6.32618 13.443 5.80195V0.90949C13.443 0.280801 13.2638 0 12.7338 0H8.7796C8.37804 0 8.13941 0.29326 8.13941 0.566395C8.13941 1.1625 9.04506 1.29955 9.13898 2.97669V6.61561C9.13898 7.41297 8.99427 7.5596 8.67322 7.5596C7.81835 7.5596 5.74349 4.48228 4.51391 0.960283C4.26569 0.276968 4.02322 0.000958297 3.37824 0.000958297H0.86253C0.144713 0.000958297 0 0.331595 0 0.701524C0 1.35513 0.854863 4.60495 3.9753 8.89843C6.05496 11.8291 8.98373 13.4171 11.648 13.4171C13.2494 13.4171 13.4449 13.0645 13.4449 12.4578C13.4449 9.65746 13.3002 9.39295 14.1024 9.39295C14.4742 9.39295 15.1144 9.57696 16.6094 10.9906C18.3182 12.6667 18.599 13.4171 19.5555 13.4171H22.0702C22.7871 13.4171 23.1503 13.0645 22.9414 12.3687C22.4632 10.9053 19.2315 7.89502 19.0859 7.69377Z" fill="black"/>
</svg>
