<svg width="208" height="208" viewBox="0 0 208 208" fill="none" xmlns="http://www.w3.org/2000/svg">
<g filter="url(#filter0_d)">
<path fill-rule="evenodd" clip-rule="evenodd" d="M194 100C194 149.706 153.706 190 104 190C54.2944 190 14 149.706 14 100C14 50.2944 54.2944 10 104 10C153.706 10 194 50.2944 194 100ZM204 100C204 155.228 159.228 200 104 200C48.7715 200 4 155.228 4 100C4 44.7715 48.7715 0 104 0C159.228 0 204 44.7715 204 100ZM107.845 42.4734C105.899 40.5179 102.738 40.5076 100.779 42.4503L54.4787 88.3814C52.5182 90.3261 52.5055 93.4919 54.4503 95.4524C56.3951 97.4128 59.5609 97.4255 61.5213 95.4807L99.3007 58.003V154C99.3007 156.761 101.539 159 104.301 159C107.062 159 109.301 156.761 109.301 154V58.1144L146.456 95.4576C148.403 97.4152 151.569 97.4232 153.527 95.4755C155.484 93.5278 155.492 90.362 153.544 88.4045L107.845 42.4734Z" fill="url(#paint0_linear)"/>
</g>
<defs>
<filter id="filter0_d" x="0" y="0" width="208" height="208" filterUnits="userSpaceOnUse" color-interpolation-filters="sRGB">
<feFlood flood-opacity="0" result="BackgroundImageFix"/>
<feColorMatrix in="SourceAlpha" type="matrix" values="0 0 0 0 0 0 0 0 0 0 0 0 0 0 0 0 0 0 127 0"/>
<feOffset dy="4"/>
<feGaussianBlur stdDeviation="2"/>
<feColorMatrix type="matrix" values="0 0 0 0 0 0 0 0 0 0 0 0 0 0 0 0 0 0 0.2 0"/>
<feBlend mode="normal" in2="BackgroundImageFix" result="effect1_dropShadow"/>
<feBlend mode="normal" in="SourceGraphic" in2="effect1_dropShadow" result="shape"/>
</filter>
<linearGradient id="paint0_linear" x1="204" y1="92.5001" x2="44.4226" y2="15.2724" gradientUnits="userSpaceOnUse">
<stop stop-color="#F9A425"/>
<stop offset="1" stop-color="#F9CF3D"/>
</linearGradient>
</defs>
</svg>
